<svg xmlns="http://www.w3.org/2000/svg" xmlns:xlink="http://www.w3.org/1999/xlink" width="2080" height="1254.05"><rect width="2080" height="1254.05" rx="5" ry="5" class="a"/><svg y="0%" x="0%"><circle cx="20" cy="20" r="6" fill="#ff5f58"/><circle cx="40" cy="20" r="6" fill="#ffbd2e"/><circle cx="60" cy="20" r="6" fill="#18c132"/></svg><svg height="1194.05" viewBox="0 0 204 119.405" width="2040" x="15" xmlns="http://www.w3.org/2000/svg" xmlns:xlink="http://www.w3.org/1999/xlink" y="50"><style>@keyframes k{0%{transform:translateX(0)}.2%{transform:translateX(-204px)}7.9%{transform:translateX(-408px)}9.7%{transform:translateX(-612px)}12.8%{transform:translateX(-816px)}14.3%{transform:translateX(-1020px)}19.6%{transform:translateX(-1224px)}22.6%{transform:translateX(-1428px)}26.9%{transform:translateX(-1632px)}28.7%{transform:translateX(-1836px)}32.7%{transform:translateX(-2040px)}43.6%{transform:translateX(-2244px)}47.1%{transform:translateX(-2448px)}49.9%{transform:translateX(-2652px)}51%{transform:translateX(-2856px)}53.1%{transform:translateX(-3060px)}55%{transform:translateX(-3264px)}60.1%{transform:translateX(-3468px)}62.5%{transform:translateX(-4488px)}62.6%{transform:translateX(-4896px)}64.2%{transform:translateX(-5100px)}to{transform:translateX(-5304px)}}.a{fill:#000}.f{fill:#f2f2f2}.g{fill:#25bc24}.h{fill:#adad27}</style><g font-size="1.67" font-family="Monaco,Consolas,Menlo,'Bitstream Vera Sans Mono','Powerline Symbols',monospace"><defs><symbol id="1"><text y="1.67" class="f">bash-3.2$</text></symbol><symbol id="2"><text y="1.67" class="f">bash-3.2$</text><text x="10.02" y="1.67" class="f">html-starter</text><text x="23.046" y="1.67" class="f">output</text></symbol><symbol id="3"><text y="1.67" class="g">****************************************</text></symbol><symbol id="4"><text y="1.67" class="h">Generating</text><text x="11.022" y="1.67" class="h">the</text><text x="15.03" y="1.67" class="h">template...</text></symbol><symbol id="5"><text y="1.67" class="g">HTML</text><text x="5.01" y="1.67" class="g">skeleton</text><text x="14.028" y="1.67" class="g">has</text><text x="18.036" y="1.67" class="g">been</text><text x="23.046" y="1.67" class="g">placed</text><text x="30.06" y="1.67" class="g">to</text><text x="33.066" y="1.67" class="g">output.</text></symbol><symbol id="a"><path fill="transparent" d="M0 0h204v55H0z"/></symbol><symbol id="b"><path fill="#4d4d4d" d="M0 0h1.102v2.171H0z"/></symbol></defs><path class="a" d="M0 0h204v119.405H0z"/><g style="animation-duration:4.521612s;animation-iteration-count:infinite;animation-name:k;animation-timing-function:steps(1,end)"><svg width="5508"><svg><use xlink:href="#a"/><use xlink:href="#b" x="-.004"/></svg><svg x="204"><use xlink:href="#a"/><use xlink:href="#b" x="9.996"/><use xlink:href="#1"/></svg><svg x="408"><use xlink:href="#a"/><use xlink:href="#b" x="10.996"/><text y="1.67" class="f">bash-3.2$</text><text x="10.02" y="1.67" class="f">h</text></svg><svg x="612"><use xlink:href="#a"/><use xlink:href="#b" x="11.996"/><text y="1.67" class="f">bash-3.2$</text><text x="10.02" y="1.67" class="f">ht</text></svg><svg x="816"><use xlink:href="#a"/><use xlink:href="#b" x="12.996"/><text y="1.67" class="f">bash-3.2$</text><text x="10.02" y="1.67" class="f">htm</text></svg><svg x="1020"><use xlink:href="#a"/><use xlink:href="#b" x="13.996"/><text y="1.67" class="f">bash-3.2$</text><text x="10.02" y="1.67" class="f">html</text></svg><svg x="1224"><use xlink:href="#a"/><use xlink:href="#b" x="14.996"/><text y="1.67" class="f">bash-3.2$</text><text x="10.02" y="1.67" class="f">html-</text></svg><svg x="1428"><use xlink:href="#a"/><use xlink:href="#b" x="15.996"/><text y="1.67" class="f">bash-3.2$</text><text x="10.02" y="1.67" class="f">html-s</text></svg><svg x="1632"><use xlink:href="#a"/><use xlink:href="#b" x="16.996"/><text y="1.67" class="f">bash-3.2$</text><text x="10.02" y="1.67" class="f">html-st</text></svg><svg x="1836"><use xlink:href="#a"/><use xlink:href="#b" x="17.996"/><text y="1.67" class="f">bash-3.2$</text><text x="10.02" y="1.67" class="f">html-sta</text></svg><svg x="2040"><use xlink:href="#a"/><use xlink:href="#b" x="22.996"/><text y="1.67" class="f">bash-3.2$</text><text x="10.02" y="1.67" class="f">html-starter</text></svg><svg x="2244"><use xlink:href="#a"/><use xlink:href="#b" x="23.996"/><text y="1.67" class="f">bash-3.2$</text><text x="10.02" y="1.67" class="f">html-starter</text><text x="23.046" y="1.67" class="f">o</text></svg><svg x="2448"><use xlink:href="#a"/><use xlink:href="#b" x="24.996"/><text y="1.67" class="f">bash-3.2$</text><text x="10.02" y="1.67" class="f">html-starter</text><text x="23.046" y="1.67" class="f">ou</text></svg><svg x="2652"><use xlink:href="#a"/><use xlink:href="#b" x="25.996"/><text y="1.67" class="f">bash-3.2$</text><text x="10.02" y="1.67" class="f">html-starter</text><text x="23.046" y="1.67" class="f">out</text></svg><svg x="2856"><use xlink:href="#a"/><use xlink:href="#b" x="26.996"/><text y="1.67" class="f">bash-3.2$</text><text x="10.02" y="1.67" class="f">html-starter</text><text x="23.046" y="1.67" class="f">outp</text></svg><svg x="3060"><use xlink:href="#a"/><use xlink:href="#b" x="27.996"/><text y="1.67" class="f">bash-3.2$</text><text x="10.02" y="1.67" class="f">html-starter</text><text x="23.046" y="1.67" class="f">outpu</text></svg><svg x="3264"><use xlink:href="#a"/><use xlink:href="#b" x="28.996"/><use xlink:href="#2"/></svg><svg x="3468"><use xlink:href="#a"/><use xlink:href="#b" x="-.004" y="2.146"/><use xlink:href="#2"/></svg><svg x="3672"><use xlink:href="#a"/><use xlink:href="#b" x="-.004" y="4.317"/><use xlink:href="#2"/></svg><svg x="3876"><use xlink:href="#a"/><use xlink:href="#b" x="-.004" y="6.488"/><use xlink:href="#2"/><use xlink:href="#3" y="4.342"/></svg><svg x="4080"><use xlink:href="#a"/><use xlink:href="#b" x="-.004" y="8.659"/><use xlink:href="#2"/><use xlink:href="#3" y="4.342"/></svg><svg x="4284"><use xlink:href="#a"/><use xlink:href="#b" x="-.004" y="10.83"/><use xlink:href="#2"/><use xlink:href="#3" y="4.342"/><use xlink:href="#4" y="8.684"/></svg><svg x="4488"><use xlink:href="#a"/><use xlink:href="#b" x="-.004" y="13.001"/><use xlink:href="#2"/><use xlink:href="#3" y="4.342"/><use xlink:href="#4" y="8.684"/><use xlink:href="#5" y="10.855"/></svg><svg x="4692"><use xlink:href="#a"/><use xlink:href="#b" x="-.004" y="15.172"/><use xlink:href="#2"/><use xlink:href="#3" y="4.342"/><use xlink:href="#4" y="8.684"/><use xlink:href="#5" y="10.855"/></svg><svg x="4896"><use xlink:href="#a"/><use xlink:href="#b" x="-.004" y="19.514"/><use xlink:href="#2"/><use xlink:href="#3" y="4.342"/><use xlink:href="#4" y="8.684"/><use xlink:href="#5" y="10.855"/><use xlink:href="#3" y="15.197"/></svg><svg x="5100"><use xlink:href="#a"/><use xlink:href="#b" x="9.996" y="19.514"/><use xlink:href="#2"/><use xlink:href="#3" y="4.342"/><use xlink:href="#4" y="8.684"/><use xlink:href="#5" y="10.855"/><use xlink:href="#3" y="15.197"/><use xlink:href="#1" y="19.539"/></svg><svg x="5304"><use xlink:href="#a"/><use xlink:href="#b" x="-.004" y="21.685"/><use xlink:href="#2"/><use xlink:href="#3" y="4.342"/><use xlink:href="#4" y="8.684"/><use xlink:href="#5" y="10.855"/><use xlink:href="#3" y="15.197"/><text y="21.209" class="f">bash-3.2$</text><text x="10.02" y="21.209" class="f">exit</text></svg></svg></g></g></svg></svg>